# Tiled2Unity generated file. Do not modify by hand.
# Wavefront file for 'Primer-nivel_mesh_0003.obj'

# Vertices (Count = 12)
v -288 -448 0
v -320 -448 0
v -320 -416 0
v -288 -416 0
v -288 -480 0
v -320 -480 0
v -320 -448 0
v -288 -448 0
v -288 -512 0
v -320 -512 0
v -320 -480 0
v -288 -480 0

# Texture cooridinates (Count = 4)
vt 0 0
vt 1 0
vt 1 1
vt 0 1

# Normal
vn 0 0 -1

# Mesh description
g Primer-nivel_mesh_0003

# Faces
f 1/1/1 2/2/1 3/3/1 4/4/1
f 5/1/1 6/2/1 7/3/1 8/4/1
f 9/1/1 10/2/1 11/3/1 12/4/1

